<svg width="24" height="25" viewBox="0 0 24 25" fill="none" xmlns="http://www.w3.org/2000/svg">
<path d="M10.3125 4.23545C10.3125 4.1647 10.2825 4.09726 10.23 4.04986C10.1775 4.00245 10.1073 3.97953 10.0369 3.98676C5.34617 4.46885 1.6875 8.43202 1.6875 13.25C1.6875 18.3932 5.85685 22.5625 11 22.5625C15.818 22.5625 19.7812 18.9039 20.2633 14.2131C20.2705 14.1427 20.2476 14.0726 20.2002 14.02C20.1528 13.9675 20.0853 13.9375 20.0146 13.9375H11C10.6203 13.9375 10.3125 13.6297 10.3125 13.25V4.23545ZM11.6875 12.3125C11.6875 12.4506 11.7994 12.5625 11.9375 12.5625H21C21.3797 12.5625 21.6875 12.8704 21.6875 13.25C21.6875 19.1526 16.9025 23.9375 11 23.9375C5.09746 23.9375 0.3125 19.1526 0.3125 13.25C0.3125 7.3475 5.09746 2.56255 11 2.56255C11.3797 2.56255 11.6875 2.87035 11.6875 3.25005V12.3125ZM15.125 8.87505C15.125 9.01312 15.2369 9.12505 15.375 9.12505H21.4079C21.4844 9.12505 21.5566 9.0901 21.604 9.03019C21.6514 8.97027 21.6688 8.89196 21.6513 8.81759C20.9257 5.74494 18.5051 3.32434 15.4325 2.59879C15.3581 2.58123 15.2798 2.59865 15.2199 2.64606C15.1599 2.69348 15.125 2.76569 15.125 2.8421V8.87505ZM14.7166 1.07519C19.1284 1.62421 22.6258 5.1216 23.1749 9.5334C23.239 10.0485 22.8118 10.5 22.25 10.5H14.125C13.9179 10.5 13.75 10.3322 13.75 10.125V2.00005C13.75 1.43826 14.2015 1.01109 14.7166 1.07519Z" fill="#54BD95" stroke="#54BD95" stroke-width="0.5" stroke-linejoin="round"/>
</svg>
