<svg width="30" height="30" viewBox="0 0 30 30" fill="none" xmlns="http://www.w3.org/2000/svg">
<path d="M10 11.875C9.13706 11.875 8.4375 12.5745 8.4375 13.4375C8.4375 14.3004 9.13706 15 10 15C10.8629 15 11.5625 14.3004 11.5625 13.4375C11.5625 12.5745 10.8629 11.875 10 11.875Z" fill="#54BD95"/>
<path d="M15 11.875C14.1371 11.875 13.4375 12.5745 13.4375 13.4375C13.4375 14.3004 14.1371 15 15 15C15.8629 15 16.5625 14.3004 16.5625 13.4375C16.5625 12.5745 15.8629 11.875 15 11.875Z" fill="#54BD95"/>
<path d="M18.4375 13.4375C18.4375 12.5745 19.1371 11.875 20 11.875C20.8629 11.875 21.5625 12.5745 21.5625 13.4375C21.5625 14.3004 20.8629 15 20 15C19.1371 15 18.4375 14.3004 18.4375 13.4375Z" fill="#54BD95"/>
<path fill-rule="evenodd" clip-rule="evenodd" d="M20.1259 5.74098C16.7582 5.45378 13.3728 5.43711 10.0024 5.69113L9.76089 5.70934C6.54676 5.95159 4.0625 8.63012 4.0625 11.8534V22.5C4.0625 22.8298 4.23583 23.1354 4.51894 23.3047C4.80204 23.4739 5.15326 23.4819 5.4438 23.3258L10.3323 20.6987C10.5597 20.5764 10.8138 20.5125 11.0719 20.5125H22.2925C23.7076 20.5125 24.9203 19.5007 25.174 18.1086C25.6881 15.287 25.7287 12.3996 25.2941 9.56467L25.1661 8.72927C24.933 7.20833 23.6887 6.04481 22.1556 5.91407L20.1259 5.74098ZM10.1433 7.56083C13.4138 7.31434 16.6987 7.33051 19.9666 7.60919L21.9963 7.78228C22.6667 7.83946 23.2108 8.34826 23.3127 9.01335L23.4408 9.84876C23.8438 12.4779 23.8061 15.1557 23.3293 17.7725C23.2381 18.2734 22.8017 18.6375 22.2925 18.6375H11.0719C10.504 18.6375 9.94495 18.7782 9.44469 19.047L5.9375 20.9319V11.8534C5.9375 9.61099 7.66577 7.74756 9.90181 7.57904L10.1433 7.56083Z" fill="#54BD95"/>
<path d="M10 11.875C9.13706 11.875 8.4375 12.5745 8.4375 13.4375C8.4375 14.3004 9.13706 15 10 15C10.8629 15 11.5625 14.3004 11.5625 13.4375C11.5625 12.5745 10.8629 11.875 10 11.875Z" stroke="#54BD95" stroke-width="0.5" stroke-linejoin="round"/>
<path d="M15 11.875C14.1371 11.875 13.4375 12.5745 13.4375 13.4375C13.4375 14.3004 14.1371 15 15 15C15.8629 15 16.5625 14.3004 16.5625 13.4375C16.5625 12.5745 15.8629 11.875 15 11.875Z" stroke="#54BD95" stroke-width="0.5" stroke-linejoin="round"/>
<path d="M18.4375 13.4375C18.4375 12.5745 19.1371 11.875 20 11.875C20.8629 11.875 21.5625 12.5745 21.5625 13.4375C21.5625 14.3004 20.8629 15 20 15C19.1371 15 18.4375 14.3004 18.4375 13.4375Z" stroke="#54BD95" stroke-width="0.5" stroke-linejoin="round"/>
<path fill-rule="evenodd" clip-rule="evenodd" d="M20.1259 5.74098C16.7582 5.45378 13.3728 5.43711 10.0024 5.69113L9.76089 5.70934C6.54676 5.95159 4.0625 8.63012 4.0625 11.8534V22.5C4.0625 22.8298 4.23583 23.1354 4.51894 23.3047C4.80204 23.4739 5.15326 23.4819 5.4438 23.3258L10.3323 20.6987C10.5597 20.5764 10.8138 20.5125 11.0719 20.5125H22.2925C23.7076 20.5125 24.9203 19.5007 25.174 18.1086C25.6881 15.287 25.7287 12.3996 25.2941 9.56467L25.1661 8.72927C24.933 7.20833 23.6887 6.04481 22.1556 5.91407L20.1259 5.74098ZM10.1433 7.56083C13.4138 7.31434 16.6987 7.33051 19.9666 7.60919L21.9963 7.78228C22.6667 7.83946 23.2108 8.34826 23.3127 9.01335L23.4408 9.84876C23.8438 12.4779 23.8061 15.1557 23.3293 17.7725C23.2381 18.2734 22.8017 18.6375 22.2925 18.6375H11.0719C10.504 18.6375 9.94495 18.7782 9.44469 19.047L5.9375 20.9319V11.8534C5.9375 9.61099 7.66577 7.74756 9.90181 7.57904L10.1433 7.56083Z" stroke="#54BD95" stroke-width="0.5" stroke-linejoin="round"/>
</svg>
