<svg width="44" height="44" viewBox="0 0 44 44" fill="none" xmlns="http://www.w3.org/2000/svg">
<path d="M13.4149 6.91003C19.0754 6.27739 24.9263 6.27739 30.5868 6.91003C32.712 7.14755 34.5776 8.29683 35.7577 9.96588L21.0842 24.6394L16.5565 20.1117C16.0195 19.5747 15.1489 19.5747 14.6119 20.1117C14.0749 20.6487 14.0749 21.5193 14.6119 22.0563L20.1119 27.5563C20.6489 28.0932 21.5195 28.0932 22.0565 27.5563L36.9348 12.678C36.976 12.8788 37.0088 13.0828 37.033 13.2895C37.7099 19.0772 37.7099 24.9241 37.033 30.7118C36.6391 34.0795 33.9351 36.717 30.5868 37.0913C24.9263 37.7239 19.0754 37.7239 13.4149 37.0913C10.0665 36.717 7.36252 34.0795 6.96863 30.7118C6.29171 24.9241 6.29171 19.0772 6.96863 13.2895C7.36252 9.92177 10.0665 7.28426 13.4149 6.91003Z" fill="#EF8013"/>
</svg>
