<svg width="24" height="31" viewBox="0 0 24 31" fill="none" xmlns="http://www.w3.org/2000/svg">
<path fill-rule="evenodd" clip-rule="evenodd" d="M17.5711 1.91723C19.4464 2.82466 20.5 4.0554 20.5 5.33871H10.5L0.5 5.33871C0.5 4.0554 1.55357 2.82466 3.42893 1.91722C5.3043 1.00979 7.84784 0.5 10.5 0.5C13.1522 0.5 15.6957 1.00979 17.5711 1.91723ZM3.42893 29.0828C1.55357 28.1753 0.5 26.9446 0.5 25.6613H10.5L20.5 25.6613C20.5 26.9446 19.4464 28.1753 17.5711 29.0828C15.6957 29.9902 13.1522 30.5 10.5 30.5C7.84783 30.5 5.3043 29.9902 3.42893 29.0828ZM23.5 17.9194V21.7903H17.5V17.9194H23.5ZM6.5 9.20968H0.5V13.0806H6.5V9.20968ZM11.5 9.20968H23.5V13.0806H11.5V9.20968ZM12.5 17.9194H0.5V21.7903H12.5V17.9194Z" fill="#191A15"/>
</svg>
