<svg width="44" height="44" viewBox="0 0 44 44" fill="none" xmlns="http://www.w3.org/2000/svg">
<path d="M22.1147 3.78676C21.5837 3.55395 21.0607 3.71682 20.7243 4.05944C20.3975 4.39227 20.234 4.90024 20.3486 5.41238C20.5295 6.22078 20.625 7.06182 20.625 7.92572C20.625 9.8981 20.1279 11.2795 19.2725 12.4247C18.403 13.5888 17.1444 14.5366 15.5552 15.606C15.5302 15.6228 15.507 15.642 15.4858 15.6634L15.2933 15.8573C11.8836 18.0602 9.625 21.8957 9.625 26.2591C9.625 33.0936 15.1655 38.6341 22 38.6341C28.8345 38.6341 34.375 33.0936 34.375 26.2591C34.375 24.2524 33.897 22.356 33.0483 20.6788C32.9793 20.5424 32.8467 20.4494 32.6949 20.4308C32.5432 20.4123 32.3921 20.4706 32.2923 20.5864C32.163 20.7363 32.0364 20.8842 31.9117 21.03C30.3015 22.9113 29.002 24.4296 26.338 25.1078C26.2247 25.1366 26.1543 25.1152 26.1043 25.084C26.0456 25.0473 25.9813 24.974 25.9372 24.8568C25.8454 24.6128 25.8848 24.3015 26.0729 24.0975C27.4978 22.5528 28.51 20.4558 28.8717 17.4728C29.5492 11.8849 27.0096 5.93285 22.1147 3.78676Z" fill="#1BC2FD"/>
</svg>
