<svg width="26" height="35" viewBox="0 0 26 35" fill="none" xmlns="http://www.w3.org/2000/svg">
<path d="M17.3367 1.00067C17.3367 0.633185 17.1172 0.301217 16.7791 0.157264C16.441 0.0133106 16.0495 0.0852007 15.7847 0.33991L12.5251 3.47412C7.67182 8.14071 3.57097 13.5311 0.368444 19.4534C0.293043 19.5866 0.25 19.7405 0.25 19.9044C0.25 20.4107 0.660406 20.8211 1.16667 20.8211H9.06833V34.0007C9.06833 34.3637 9.28254 34.6925 9.61458 34.8392C9.94662 34.9859 10.3339 34.9228 10.6023 34.6783L12.0607 33.3498C17.166 28.6992 21.4986 23.2657 24.896 17.2532L25.7981 15.6566C25.9584 15.3728 25.956 15.0252 25.7917 14.7437C25.6274 14.4621 25.326 14.289 25 14.289H17.3367V1.00067Z" fill="#F8B504"/>
</svg>
