<svg width="44" height="44" viewBox="0 0 44 44" fill="none" xmlns="http://www.w3.org/2000/svg">
<path d="M8.25 17.9049C8.25 10.5188 14.4357 4.58398 22 4.58398C29.5643 4.58398 35.75 10.5188 35.75 17.9049C35.75 22.2205 33.9659 26.1141 30.626 28.5697C30.3955 28.7392 30.256 28.9494 30.2074 29.1557C30.1089 29.5738 30.0009 30.0523 29.8897 30.5656C29.8348 30.8196 29.6105 31.0015 29.3507 31.0015H14.6493C14.3895 31.0015 14.1652 30.8196 14.1103 30.5656C13.9991 30.0523 13.8911 29.5738 13.7926 29.1557C13.744 28.9494 13.6045 28.7392 13.374 28.5697C10.0341 26.1141 8.25 22.2205 8.25 17.9049Z" fill="#1ADD75"/>
<path d="M15.401 33.7515C15.0584 33.7515 14.7994 34.0614 14.8564 34.3992C15.0287 35.4196 15.1544 36.3308 15.1925 36.9605C15.308 38.8694 16.714 40.4417 18.5941 40.8479L18.9534 40.9255C20.9598 41.359 23.0402 41.359 25.0466 40.9255L25.4059 40.8479C27.286 40.4417 28.692 38.8694 28.8075 36.9605C28.8456 36.3308 28.9713 35.4196 29.1436 34.3992C29.2006 34.0614 28.9416 33.7515 28.599 33.7515H15.401Z" fill="#1ADD75"/>
</svg>
