<svg width="32" height="32" viewBox="0 0 32 32" fill="none" xmlns="http://www.w3.org/2000/svg">
<path fill-rule="evenodd" clip-rule="evenodd" d="M2.8431 21.3855C-1.15518 11.5715 6.06475 0.833984 16.6619 0.833984H17.2512C25.1667 0.833984 31.5835 7.2508 31.5835 15.1663C31.5835 24.008 24.4159 31.1756 15.5742 31.1756H1.23703C0.848049 31.1756 0.501424 30.9302 0.372324 30.5632C0.243223 30.1963 0.359762 29.7878 0.663048 29.5443L4.27745 26.6416C4.59353 26.3877 4.70534 25.9564 4.55238 25.581L2.8431 21.3855ZM18.0169 10.8257C18.0169 10.0663 17.4013 9.45067 16.6419 9.45067C15.8825 9.45067 15.2669 10.0663 15.2669 10.8257V14.4924H11.6002C10.8408 14.4924 10.2252 15.108 10.2252 15.8674C10.2252 16.6268 10.8408 17.2424 11.6002 17.2424H15.2669V20.909C15.2669 21.6684 15.8825 22.284 16.6419 22.284C17.4013 22.284 18.0169 21.6684 18.0169 20.909V17.2424H21.6836C22.4429 17.2424 23.0586 16.6268 23.0586 15.8674C23.0586 15.108 22.4429 14.4924 21.6836 14.4924H18.0169V10.8257Z" fill="#0CB34E"/>
</svg>
