<svg width="52" height="48" viewBox="0 0 52 48" fill="none" xmlns="http://www.w3.org/2000/svg">
<path fill-rule="evenodd" clip-rule="evenodd" d="M21.9622 2.97126C23.7607 -0.12812 28.2365 -0.128111 30.0349 2.97126L35.5425 12.4629C36.0502 13.3378 36.9277 13.9348 37.9278 14.0859L47.0736 15.4672C51.0602 16.0694 52.4586 21.1029 49.3539 23.6751L42.6901 29.196C41.7548 29.9709 41.315 31.1932 41.5422 32.3864L43.4089 42.189C44.14 46.0288 40.109 49.0123 36.6503 47.1911L27.5516 42.4003C26.5795 41.8884 25.4176 41.8884 24.4456 42.4003L15.3468 47.1911C11.8881 49.0123 7.8571 46.0288 8.5883 42.189L10.4549 32.3864C10.6821 31.1932 10.2423 29.9709 9.30702 29.196L2.64328 23.6751C-0.461475 21.1029 0.936934 16.0694 4.92359 15.4672L14.0693 14.0859C15.0695 13.9348 15.9469 13.3378 16.4546 12.4629L21.9622 2.97126ZM26.5752 4.97881C26.3183 4.53604 25.6789 4.53604 25.422 4.9788L19.9143 14.4704C18.7975 16.3952 16.8671 17.7087 14.6667 18.041L5.52096 19.4224C4.95144 19.5084 4.75167 20.2275 5.1952 20.5949L11.8589 26.1158C13.9166 27.8205 14.8842 30.5096 14.3843 33.1346L12.5177 42.9372C12.4132 43.4857 12.9891 43.912 13.4832 43.6518L22.582 38.8609C24.7205 37.7349 27.2766 37.7349 29.4152 38.8609L38.514 43.6518C39.0081 43.912 39.5839 43.4857 39.4795 42.9372L37.6128 33.1346C37.113 30.5096 38.0805 27.8205 40.1382 26.1158L46.8019 20.5949C47.2455 20.2275 47.0457 19.5084 46.4762 19.4224L37.3305 18.041C35.1301 17.7087 33.1997 16.3952 32.0828 14.4704L26.5752 4.97881Z" fill="#0A071B"/>
</svg>
